<svg xmlns="http://www.w3.org/2000/svg" viewBox="0 0 32 32" fill="none">
  <rect width="32" height="32" rx="8" fill="#f97316"/>
  <path fill="#fff" d="M18.2 14.1c.6-1.2.1-2.7-1.5-3.3-1-.4-1.7-.4-2.4-.3v6.2c.8.2 1.8.3 2.5-.1 1.4-.7 1.8-2 1.4-2.5zm-3.9-5.2c2.8-.1 5.9 1.7 6.6 5.1.5 2.4-.2 4.5-2.4 5.6 2.8 1.1 4.2 3.4 3.5 6.4-.8 3.5-3.8 5.1-7.7 5.1h-7V8.9h7.2v-.1c.3 0 .6 0 .8 0zm-1.3 8.9h1.9c1.8 0 2.9-1 2.9-2.6 0-1.7-1.1-2.5-3-2.5h-1.8v5.1zm0 7.1h2.2c2.1 0 3.3-1.1 3.3-3 0-1.9-1.2-2.9-3.4-2.9h-2.1v5.9z"/>
</svg>
